# xmcd
#
# Track frame offsets: 
#        150
#        13698
#        22090
#        35410
#        44816
#        55801
#        68326
#        78976
#        89221
#        99769
#        112099
#        127905
#        139905
#        148548
#        158199
#        167633
#        176753
#        186524
#
# Disc length: 2643 seconds
#
# Revision: 0
# Processed by: cddbd v1.5.2PL0 Copyright (c) Steve Scherf et al.
# Submitted via: ExactAudioCopy v1.0b3
#
DISCID=fc0a5112
DTITLE=Reno and Smiley and The Tennessee Cut-Ups - Reno and Smiley 1959-63 C
DTITLE=D4
DYEAR=2011
DGENRE=Bluegrass
TTITLE0=Drs4 - The Old Rugged Cross
TTITLE1=Drs4 - River Of Jordan
TTITLE2=Drs4 - Amazing Grace
TTITLE3=Drs4 - Echoes From The Burning Bush
TTITLE4=Drs4 - Jesus Savior, Pilot Me
TTITLE5=Drs4 - Precious Memories
TTITLE6=Drs4 - In The Sweet Bye And Bye
TTITLE7=Drs4 - Mansion In The Sky
TTITLE8=Drs4 - Rock Of Ages
TTITLE9=Drs4 - What A Friend We Have In Jesus
TTITLE10=Drs4 - Farther Along
TTITLE11=Drs4 - Where We'll Never Grow Old
TTITLE12=Drs4 - Seeing Nellie Home
TTITLE13=Drs4 - Keep Your Skillet Good And Greasy
TTITLE14=Drs4 - Pretty Polly
TTITLE15=Drs4 - Weeping Willow Tree
TTITLE16=Drs4 - Cripple Creek
TTITLE17=Drs4 - Lady Of Spain
EXTD=
EXTT0=
EXTT1=
EXTT2=
EXTT3=
EXTT4=
EXTT5=
EXTT6=
EXTT7=
EXTT8=
EXTT9=
EXTT10=
EXTT11=
EXTT12=
EXTT13=
EXTT14=
EXTT15=
EXTT16=
EXTT17=
PLAYORDER=
